<?xml version="1.0" encoding="UTF-8" standalone="no"?>
<!-- Created with Inkscape (http://www.inkscape.org/) -->

<svg
   width="95.931999mm"
   height="27.607mm"
   viewBox="0 0 95.932 27.607"
   version="1.1"
   id="svg5"
   xmlns="http://www.w3.org/2000/svg"
   xmlns:svg="http://www.w3.org/2000/svg">
  <defs
     id="defs2" />
  <g
     id="layer1"
     transform="translate(-6.0781252,-6.6445312)">
    <g
       id="text790"
       transform="translate(1.0001172,0.99978928)">
      <path
         style="color:#000000;fill:#000000;fill-rule:evenodd;-inkscape-stroke:none;paint-order:markers stroke fill"
         d="m 16.722656,6.6445312 c -4.461831,0 -6.650042,0.4261458 -8.0605466,0.8867188 L 8.6386724,7.53906 8.6152354,7.54883 C 7.9035771,7.8076126 7.191927,8.4161478 7.0996094,9.4316406 l 0.013672,-0.1113281 c 4.05e-4,-0.00243 -0.2879245,1.4036175 -0.5390625,3.0800785 -0.2511379,1.67646 -0.4960937,3.804516 -0.4960937,5.904296 0,1.24063 0.2934825,2.510556 1.0898437,3.556641 0.7963613,1.046085 2.161566,1.753906 3.7128901,1.753906 3.166938,0 5.620659,-0.639744 7.109375,-1.654297 0.232031,-0.155966 0.386419,-0.39466 0.541016,-0.626953 0.14364,0.297259 0.25902,0.606787 0.476562,0.871094 0.685208,0.832508 1.807902,1.410156 3.048829,1.410156 1.630912,0 3.036926,-0.75907 4.277343,-1.740234 0.135481,0.17459 0.151475,0.379625 0.31836,0.541016 0.725247,0.701369 1.806851,1.199218 3.023437,1.199218 3.283038,0 5.506259,-2.803134 6.673828,-3.970703 0.712473,-0.712472 1.6584,-1.45621 2.582032,-2.042969 -0.470798,0.709544 -0.84961,1.518843 -0.84961,2.482422 0,1.935707 1.595545,3.53125 3.53125,3.53125 1.59216,0 2.921246,-0.922659 3.615235,-2.03125 0.693989,-1.10859 0.933593,-2.363707 0.933593,-3.533203 0,-0.04158 -0.01277,-0.07599 -0.01367,-0.117187 0.135376,-0.05645 0.25598,-0.09889 0.390625,-0.152344 0.08624,1.153228 0.419461,2.292378 1.158204,3.230469 0.845084,1.073128 2.227042,1.841797 3.822265,1.841797 1.06098,0 1.954519,-0.429517 2.728516,-0.970704 -1.530048,1.842276 -2.957031,4.005575 -2.957031,6.582032 0,2.094334 1.690822,3.787109 3.785156,3.787109 1.529868,0 2.80708,-0.925246 3.521484,-2.042969 0.714405,-1.117722 1.027344,-2.44298 1.027344,-3.77539 0,-1.064033 -0.148428,-2.298286 -0.298828,-3.488282 0.918552,-0.893197 1.936428,-1.78745 2.625,-2.265625 l 0.02344,-0.01563 0.02148,-0.01563 c 0.539437,-0.404577 0.929687,-1.081887 0.929687,-1.835937 0,-1.31468 -1.014812,-2.261719 -2.261719,-2.261719 -0.313777,0 -0.869463,0.06733 -1.357421,0.451172 -0.240793,0.171872 -0.554393,0.470229 -0.820313,0.675781 -0.252196,-1.313576 -0.531738,-2.843085 -0.697266,-3.640625 v -0.0039 l -0.002,-0.0039 c -0.217107,-1.01317 -1.132728,-1.796875 -2.203125,-1.796875 -1.25484,0 -2.183511,1.022202 -2.257812,2.136719 l -0.002,0.01953 v 0.01953 c -0.03759,0.911561 -0.419342,2.073826 -0.91211,2.886719 -0.492767,0.812893 -1.10937,1.033203 -0.892578,1.033203 -0.214177,0 -0.21739,-0.01634 -0.30664,-0.128906 -0.08925,-0.112569 -0.22461,-0.406464 -0.22461,-0.910157 0,-0.965148 0.01647,-1.482543 0.195313,-2.332031 l 0.0332,-0.154297 v -0.15625 c 0,0.457822 0.02539,0.407078 0.02539,-0.152343 0,-1.181803 -0.922845,-2.261719 -2.236328,-2.261719 -0.07455,0 -0.340763,-0.0136 -0.697265,0.103516 -0.733985,0.216381 -2.404304,0.830848 -4.011719,1.501953 -0.890877,-0.887216 -2.00313,-1.605469 -3.445313,-1.605469 -3.826556,0 -6.481081,3.016238 -7.689453,4.224609 -0.636588,0.636589 -1.413192,1.364651 -2.11914,1.890625 -0.705949,0.525974 -1.395883,0.744141 -1.367188,0.744141 -0.03041,0 0.12567,0.15256 -0.0059,-0.119141 -0.131529,-0.271701 -0.271485,-0.91508 -0.271485,-1.683594 0,-0.517548 -0.250297,-0.982534 -0.568359,-1.378906 0.004,-0.05385 0.06055,-0.09016 0.06055,-0.144531 0,-0.403987 -0.10015,-0.618296 -0.126953,-0.697266 -0.564437,-1.727199 -2.172067,-2.835937 -3.914063,-2.835937 -1.915138,0 -3.60217,0.957619 -4.814453,2.263672 -1.001312,1.078763 -1.60408,2.457223 -1.826172,3.917968 -0.400763,-0.351566 -0.905744,-0.593749 -1.486328,-0.59375 -0.486546,10e-7 -0.87629,0.144525 -1.205078,0.341797 l -0.01563,0.0098 -0.01758,0.0098 c 0.04431,-0.0282 -0.636111,0.303426 -1.478516,0.517578 -0.842405,0.214152 -1.939137,0.392578 -3.125,0.392578 -0.336517,0 -0.193151,-0.0014 -0.167968,0.03125 0.02518,0.03265 -0.111328,-0.200376 -0.111328,-0.81836 0,-0.433268 0.0396,-0.887877 0.0625,-1.335937 0.601844,-0.09361 1.085016,-0.210938 2.248046,-0.210938 0.640038,0 1.036617,0.03391 1.830079,0.197266 l 0.15039,0.03125 h 0.152344 c -0.457822,0 -0.407078,0.02539 0.152344,0.02539 1.181598,0 2.261718,-0.973772 2.261718,-2.263672 0,-0.714888 -0.444009,-1.421346 -0.898437,-1.763672 -0.454428,-0.342326 -0.891064,-0.472299 -1.298828,-0.566406 -0.815528,-0.188215 -1.586809,-0.185547 -2.095703,-0.185547 h -0.253907 c -0.746355,0 -1.128667,0.09827 -1.720703,0.150391 0.04457,-0.261324 0.08275,-0.536548 0.123047,-0.761719 0.968336,-0.213166 2.242347,-0.451172 5.408203,-0.451172 1.28196,0 2.261719,-0.981712 2.261719,-2.263672 0,-1.2819599 -0.979759,-2.2617188 -2.261719,-2.2617188 z m 49.783203,0 c -2.494813,0 -4.546875,2.0543229 -4.546875,4.5488278 0,1.592915 0.760747,2.903277 1.634766,3.828125 0.874019,0.924848 1.871882,1.570356 2.640625,2.103516 h 0.002 v 0.002 c 0.846739,0.585246 1.524912,1.094921 1.904297,1.490234 0.231071,0.240774 0.210574,0.310608 0.257812,0.427735 -0.535762,-0.06845 -1.074119,-0.341566 -1.099609,-0.365235 l -0.0293,-0.02734 -0.03125,-0.02734 c -0.43083,-0.359025 -0.8884,-0.550781 -1.49414,-0.550781 -1.280688,0 -2.261719,0.98103 -2.261719,2.261718 0,0.577265 0.219714,1.17284 0.667969,1.621094 l 0.0098,0.0098 0.0098,0.0098 c 0.980205,0.942506 2.497543,1.638672 4.367187,1.638672 1.110026,0 2.209835,-0.348891 3.082032,-1.083984 0.755077,-0.636384 1.224143,-1.629606 1.357421,-2.722656 1.105783,2.205454 3.224556,3.80664 5.97461,3.80664 0.238728,0 0.47263,-0.0559 0.708984,-0.07031 0.311505,0.894323 0.667303,1.575934 0.783203,1.730469 l 0.0293,0.03906 0.0332,0.03711 c 0.50544,0.58968 1.101911,0.802735 1.773438,0.802735 1.313482,0 2.236328,-1.079917 2.236328,-2.261719 0,-0.855759 -0.460404,-1.44126 -0.570313,-1.626953 -0.0082,-0.01391 -0.006,-0.04981 -0.01367,-0.0625 1.797309,-1.045012 3.190299,-2.614157 4.015625,-4.548828 -0.02184,0.560614 -0.08203,1.182339 -0.08203,1.666015 0,2.34308 1.95153,4.294922 4.294922,4.294922 0.88031,0 1.981493,-0.136278 3.064453,-0.263672 1.082961,-0.127393 2.174152,-0.24414 2.523438,-0.24414 1.28196,0 2.261727,-0.982985 2.261727,-2.263672 0,-1.280688 -0.981039,-2.259766 -2.261727,-2.259766 -0.880309,0 -1.981493,0.136279 -3.064453,0.263672 -0.979023,0.115167 -1.842959,0.201394 -2.28125,0.220703 0.0234,-2.552153 0.496093,-7.188645 0.496093,-10.162109 0,-1.2819599 -0.979759,-2.2617187 -2.261718,-2.2617188 -1.28196,0 -2.261719,0.981031 -2.261719,2.2617188 0,0.4927013 -0.0686,1.388863 -0.09961,2.027344 C 87.270107,8.452518 84.963697,6.6445312 82,6.6445312 c -1.779051,0 -3.337618,0.8433652 -4.505859,2.0234376 C 74.480329,9.7770399 72.147951,12.754544 72.125,16.474609 71.90359,16.137734 71.708799,15.76675 71.451172,15.494141 70.577153,14.569292 69.577336,13.921832 68.808594,13.388672 h -0.002 c -0.390006,-0.269562 -0.571198,-0.453737 -0.876954,-0.6875 0.215826,0.06534 0.365653,0.246094 0.607422,0.246094 1.28069,0 2.263672,-0.979759 2.263672,-2.261719 0,-1.2501554 -0.628734,-2.3320787 -1.445312,-3.0078126 C 68.53889,7.0020005 67.541415,6.6445312 66.505859,6.6445312 Z M 82,11.169922 c 0.820606,0 1.316841,0.243819 1.681641,0.636719 0.364799,0.392899 0.628906,1.008582 0.628906,1.925781 0,1.391746 -0.554829,2.484339 -1.314453,3.398437 -0.271582,-0.650626 -0.595636,-1.22771 -0.970703,-1.710937 -0.441583,-0.58455 -1.133869,-0.900391 -1.802735,-0.900391 -1.254658,0 -2.263672,1.042259 -2.263672,2.261719 0,0.486035 0.106378,0.924476 0.482422,1.394531 0.117374,0.146717 0.164341,0.610992 0.271485,0.826172 -0.628961,-0.05793 -1.130204,-0.21155 -1.44336,-0.548828 -0.364799,-0.392899 -0.626953,-1.008583 -0.626953,-1.925781 0,-1.290149 0.607132,-2.237636 1.363281,-2.904297 0.07643,0.008 0.103897,0.08594 0.183594,0.08594 0.888582,0 1.707617,-0.520819 2.078125,-1.335937 l 0.0098,-0.02539 0.0098,-0.02344 C 80.492196,11.827695 81.489904,11.169922 82,11.169922 Z m -57.505859,5.296875 c 0.0057,0.01704 0.02517,0.02607 0.03125,0.04297 -0.0059,-0.017 -0.01644,0.0023 -0.02344,-0.01758 z m 0.25,0.351562 c 0.01247,0.02219 0.03172,0.03877 0.04492,0.06055 -0.256864,0.556882 -0.608938,1.123975 -1.111328,1.517578 -0.320404,0.251025 -0.565926,0.258935 -0.86914,0.373047 0.128547,-0.386662 0.20905,-0.780063 0.564453,-1.160156 0.48669,-0.520501 1.065222,-0.752549 1.371094,-0.791016 z m 35.496093,1.398438 c -0.01467,0.01019 -0.03598,0.03457 -0.05078,0.04492 0.0032,-0.0025 0.0027,-0.0113 0.0059,-0.01367 z m -43.144531,2.496094 -0.0332,0.02148 c -0.01546,0.0093 -0.05333,0.0089 -0.07031,0.01758 0.02689,-0.01634 0.07699,-0.02219 0.103516,-0.03906 z m 48.162109,0.164062 c 0.02821,0.0262 0.07981,0.04434 0.109375,0.07031 -0.01332,-0.01069 -0.03578,-0.0051 -0.05078,-0.01758 z"
         id="path1070" />
      <path
         style="color:#000000;fill:#ffffff;fill-rule:evenodd;stroke-width:3;-inkscape-stroke:none;paint-order:markers stroke fill"
         d="m 16.721977,8.1447225 c -4.368796,0 -6.34977,0.4064707 -7.5943688,0.8128703 C 8.8482085,9.0591927 8.6191907,9.287975 8.5937907,9.5673747 8.5175908,10.024574 7.577832,14.34243 7.577832,18.304826 c 0,1.981198 0.9907264,3.810103 3.302124,3.810103 2.920997,0 5.308837,-0.736414 6.274036,-1.396814 0.228599,-0.1524 0.330212,-0.381103 0.330212,-0.635103 0,-0.4318 -0.381228,-0.762227 -0.762227,-0.762227 -0.1524,0 -0.305015,0.05092 -0.432015,0.127124 -0.5588,0.355599 -2.743009,1.143082 -5.410006,1.143082 -1.2445987,0 -1.778186,-0.711367 -1.778186,-2.286165 0,-0.888999 0.050924,-1.803343 0.127124,-2.692342 0.6095994,-0.1524 1.854181,-0.355534 3.682979,-0.355534 0.7112,0 1.270121,0.05061 2.13372,0.22841 0.0508,0 0.101646,0.02584 0.152446,0.02584 0.380999,0 0.76171,-0.305028 0.76171,-0.762227 0,-0.965199 -1.828429,-1.015959 -2.793628,-1.015959 h -0.254248 c -1.549398,0 -2.743213,0.152491 -3.505212,0.304891 0.2031998,-1.625599 0.482782,-3.048183 0.609782,-3.784782 1.066799,-0.3047998 2.946338,-0.5839438 6.705534,-0.5839438 0.406399,0 0.762227,-0.3558277 0.762227,-0.7622273 0,-0.4063996 -0.355828,-0.7622274 -0.762227,-0.7622274 z m 49.784041,0 c -1.676398,0 -3.047876,1.3719944 -3.047876,3.0483925 0,2.285998 2.057021,3.606739 3.63182,4.698938 1.727198,1.193799 2.971911,2.158733 2.971911,3.428732 0,0.761999 -0.558739,1.270206 -1.523938,1.270206 -1.066799,0 -1.904727,-0.48267 -2.260327,-0.81287 -0.1524,-0.127 -0.356017,-0.203088 -0.533817,-0.203088 -0.4064,0 -0.761711,0.355311 -0.761711,0.76171 0,0.2032 0.07601,0.406739 0.22841,0.559139 0.660399,0.635 1.854247,1.219047 3.327445,1.219047 1.574799,0 3.047876,-1.016146 3.047876,-2.794144 0,-2.285998 -2.057021,-3.60674 -3.631819,-4.698938 -1.727199,-1.193799 -2.971912,-2.158733 -2.971912,-3.428732 0,-0.863599 0.660339,-1.5239378 1.523938,-1.5239378 0.711199,0 1.270207,0.5333588 1.270207,1.0159588 0,0.406399 0.355311,0.761711 0.76171,0.761711 0.4064,0 0.762228,-0.355312 0.762228,-0.761711 0,-1.5493985 -1.473346,-2.5404135 -2.794145,-2.5404135 z m 15.494145,0 c -1.447799,0 -2.845062,0.7367086 -3.759461,1.8035075 -2.539997,0.812799 -4.622973,3.35313 -4.622973,6.578927 0,3.149596 2.082844,5.587772 5.334041,5.587772 0.634999,0 1.219308,-0.05077 1.803508,-0.177767 0.152399,1.422399 0.812634,2.337011 0.888834,2.438611 0.1524,0.1778 0.406504,0.279053 0.635103,0.279053 0.4318,0 0.736906,-0.380711 0.736906,-0.761711 0,-0.711199 -0.711427,-0.787691 -0.762227,-2.413289 3.022597,-1.244599 5.08031,-4.190818 5.08031,-7.746814 0,-3.149597 -2.082845,-5.5882895 -5.334041,-5.5882895 z m 8.635648,0 c -0.406399,0 -0.76171,0.3558278 -0.76171,0.7622274 0,2.7177971 -0.50798,7.5690371 -0.50798,10.4138351 0,1.650998 1.14263,2.794144 2.793628,2.794144 1.396999,0 4.445291,-0.507979 5.58829,-0.507979 0.406399,0 0.76171,-0.355828 0.76171,-0.762228 0,-0.406399 -0.355311,-0.76171 -0.76171,-0.76171 -1.396999,0 -4.445291,0.507979 -5.58829,0.507979 -0.888999,0 -1.26969,-0.381207 -1.26969,-1.270206 0,-2.692398 0.50798,-7.543638 0.50798,-10.4138351 0,-0.4063996 -0.355828,-0.7622274 -0.762228,-0.7622274 z m -8.635648,1.5244547 c 2.336797,0 3.809586,1.6254368 3.809586,4.0638348 0,2.717797 -1.422022,5.003991 -3.631819,6.12159 -0.2032,-1.600198 -0.711172,-2.718251 -1.346171,-3.531051 -0.1524,-0.203199 -0.381183,-0.304374 -0.609782,-0.304374 -0.4318,0 -0.762228,0.355311 -0.762228,0.761711 0,0.1524 0.05085,0.330336 0.152446,0.457336 0.507999,0.635 0.96544,1.57488 1.09244,3.149679 -0.5588,0.127 -1.143266,0.203088 -1.752865,0.203088 -2.336798,0 -3.809587,-1.625437 -3.809587,-4.063834 0,-2.057398 1.066417,-3.708654 2.463416,-4.597653 0.127,0.1524 0.330461,0.27957 0.58446,0.27957 0.3048,0 0.584068,-0.177937 0.711068,-0.457337 0.4826,-1.168398 1.854437,-2.0825598 3.099036,-2.0825598 z m -57.15,4.0638348 c -2.793997,0 -5.334042,2.895375 -5.334042,5.587773 0,1.422398 0.888899,2.794144 2.539897,2.794144 1.727198,0 3.479896,-1.041455 4.648295,-2.489254 0.381,1.244599 1.270113,2.489254 2.971912,2.489254 0.002,-0.783017 0.0022,-1.009368 0,-1.523938 -1.244599,0 -1.778186,-1.473326 -1.778186,-3.302124 0,-0.380999 -0.305028,-0.76171 -0.762228,-0.76171 -0.330199,0 -0.609467,0.228501 -0.711067,0.5333 -0.6604,2.006598 -2.743128,3.530534 -4.368726,3.530534 -0.634999,0 -1.015959,-0.406607 -1.015959,-1.270206 0,-1.879599 2.032106,-4.063835 3.810104,-4.063835 0.431799,0 0.914201,0.304589 1.066601,0.736389 0.1016,0.3048 0.380868,0.533818 0.711068,0.533818 0.4572,0 0.762227,-0.381228 0.762227,-0.762228 0,-0.0762 -0.02524,-0.15221 -0.05064,-0.22841 -0.3556,-1.092199 -1.397055,-1.803507 -2.489254,-1.803507 z m 4.826062,6.857979 c 0.0038,0.720293 0.0021,0.452626 0,1.523938 2.260597,0 4.393895,-2.311335 5.613094,-3.530534 1.295399,-1.295398 3.454253,-3.327445 5.562451,-3.327445 0.685799,0 1.321065,0.380959 1.752865,1.015959 -1.498599,0.888999 -3.022555,2.108305 -3.022555,3.810103 0,1.117599 0.914319,2.031917 2.031917,2.031917 2.184398,0 3.047876,-2.184236 3.047876,-4.063834 0,-0.3556 -0.05092,-0.736841 -0.127124,-1.09244 1.219199,-0.5842 2.489214,-1.041293 3.505213,-1.371493 -0.0508,0.5334 -0.07597,1.092106 -0.07597,1.701705 0,2.031998 1.244458,4.063835 3.555856,4.063835 1.904998,0 3.225871,-1.67629 3.98787,-3.378089 0.2286,1.168399 0.457225,2.540027 0.660425,3.835425 -1.727198,1.879598 -3.378089,4.292694 -3.378089,6.654891 0,1.219199 1.066967,2.286166 2.286166,2.286166 1.955798,0 3.047876,-2.159085 3.047876,-4.318083 0,-1.193799 -0.152334,-2.717996 -0.355534,-4.114994 1.117599,-1.168399 2.413046,-2.23511 3.327445,-2.870109 0.2032,-0.1524 0.330213,-0.381104 0.330213,-0.635104 0,-0.431799 -0.381228,-0.76171 -0.762228,-0.76171 -0.152399,0 -0.305015,0.02501 -0.432015,0.126607 -0.787399,0.558799 -1.777786,1.346445 -2.742985,2.260844 -0.406399,-2.412998 -0.889004,-4.749554 -1.168404,-6.095752 -0.0762,-0.3556 -0.380789,-0.609782 -0.736389,-0.609782 -0.431799,0 -0.736827,0.355389 -0.762227,0.736389 -0.1016,2.463798 -1.803526,5.359363 -3.302124,5.359363 -1.244599,0 -2.031918,-1.015898 -2.031918,-2.539897 0,-0.990599 0.02521,-1.6765 0.22841,-2.641699 0,-0.0508 0.02584,-0.101646 0.02584,-0.152446 0,-0.380999 -0.305106,-0.76171 -0.736905,-0.76171 -0.0762,0 -0.15221,-7.9e-5 -0.22841,0.02532 -0.863599,0.254 -2.895664,0.889109 -4.826062,1.803508 -0.635,-1.015999 -1.752837,-1.828829 -3.099036,-1.828829 -2.971797,0 -5.384454,2.540183 -6.629053,3.784782 -1.320798,1.320798 -3.251094,3.073197 -4.546492,3.073197 z m 13.436389,-2.844787 c 0,0.1016 0.02532,0.203291 0.02532,0.304891 0,1.676398 -0.660338,2.539896 -1.523938,2.539896 -0.304799,0 -0.507979,-0.203179 -0.507979,-0.507979 0,-0.660399 0.685797,-1.498609 2.006597,-2.336808 z m 13.335103,6.095752 c 0.1016,0.939799 0.152446,1.829057 0.152446,2.591056 0,1.904998 -0.939739,2.794145 -1.523938,2.794145 -0.3048,0 -0.762228,-0.457428 -0.762228,-0.762228 0,-1.346198 0.863722,-3.022775 2.13372,-4.622973 z"
         id="path1072" />
    </g>
  </g>
</svg>
